<?xml version="1.0" encoding="UTF-8"?>
<svg id="Layer_2" data-name="Layer 2" xmlns="http://www.w3.org/2000/svg" viewBox="0 0 56.58 95.45">
  <defs>
    <linearGradient id="modoGoldGradient" x1="0%" y1="100%" x2="100%" y2="0%">
      <stop offset="0%" stop-color="#8A6324"/>
      <stop offset="25%" stop-color="#C9972B"/>
      <stop offset="52%" stop-color="#F2E58A"/>
      <stop offset="75%" stop-color="#E8C86A"/>
      <stop offset="100%" stop-color="#B8831F"/>
    </linearGradient>

    <style>
      .cls-1 {
        fill: url(#modoGoldGradient);
      }
    </style>
  </defs>
  <g id="VETOR">
    <g id="Vertical">
      <g>
        <path class="cls-1" d="M1.71,75.37v-13.49h3.86l3.44,9.82,3.42-9.82h3.86v13.49h-2.89v-8.74l-3.17,8.7h-2.47l-3.15-8.7v8.74H1.71Z"/>
        <path class="cls-1" d="M23.12,75.6c-1.04,0-1.94-.22-2.72-.66-.77-.44-1.38-1.05-1.81-1.85s-.65-1.74-.65-2.81.21-2.01.65-2.8c.43-.79,1.03-1.41,1.81-1.85.77-.44,1.68-.67,2.72-.67s1.94.22,2.72.67,1.37,1.06,1.8,1.85c.43.79.65,1.73.65,2.8s-.22,2.01-.65,2.81-1.03,1.42-1.8,1.85c-.77.44-1.68.66-2.72.66ZM23.12,73.41c.71,0,1.26-.28,1.65-.83.39-.55.59-1.32.59-2.31s-.2-1.76-.59-2.31c-.39-.55-.94-.83-1.65-.83s-1.26.28-1.65.83-.59,1.32-.59,2.31.2,1.76.59,2.31c.39.55.94.83,1.65.83Z"/>
        <path class="cls-1" d="M33.44,75.6c-.86,0-1.61-.22-2.23-.66-.63-.44-1.11-1.05-1.44-1.84-.33-.79-.5-1.73-.5-2.82s.17-2.03.51-2.82c.34-.79.83-1.41,1.45-1.84.63-.44,1.36-.66,2.21-.66.72,0,1.35.15,1.87.45.53.3.92.71,1.19,1.23v-4.75h2.85v13.49h-2.72l-.06-1.5c-.28.54-.69.97-1.24,1.27-.55.3-1.18.46-1.89.46ZM34.37,73.41c.46,0,.84-.12,1.16-.36.32-.24.56-.59.72-1.05.16-.46.25-1.04.25-1.72s-.08-1.28-.25-1.74c-.17-.46-.41-.81-.72-1.05-.32-.23-.7-.35-1.16-.35-.67,0-1.2.28-1.6.84-.39.56-.59,1.33-.59,2.29s.2,1.71.6,2.28c.4.57.93.85,1.59.85Z"/>
        <path class="cls-1" d="M46.03,75.6c-1.04,0-1.94-.22-2.72-.66-.77-.44-1.38-1.05-1.81-1.85s-.65-1.74-.65-2.81.21-2.01.65-2.8c.43-.79,1.03-1.41,1.81-1.85.77-.44,1.68-.67,2.72-.67s1.94.22,2.72.67,1.37,1.06,1.8,1.85c.43.79.65,1.73.65,2.8s-.22,2.01-.65,2.81-1.03,1.42-1.8,1.85c-.77.44-1.68.66-2.72.66ZM46.03,73.41c.71,0,1.26-.28,1.65-.83.39-.55.59-1.32.59-2.31s-.2-1.76-.59-2.31c-.39-.55-.94-.83-1.65-.83s-1.26.28-1.65.83-.59,1.32-.59,2.31.2,1.76.59,2.31c.39.55.94.83,1.65.83Z"/>
        <path class="cls-1" d="M1.53,92.37v-13.49h4.07c2.05,0,3.63.59,4.74,1.76s1.66,2.84,1.66,5.01-.54,3.81-1.63,4.98c-1.09,1.17-2.64,1.75-4.65,1.75H1.53ZM2.82,91.12h2.77c1.66,0,2.92-.46,3.77-1.39s1.28-2.29,1.28-4.08-.43-3.2-1.28-4.12-2.11-1.39-3.77-1.39h-2.77v10.98Z"/>
        <path class="cls-1" d="M14.37,80.63v-1.69h1.33v1.69h-1.33ZM14.41,92.37v-10.07h1.25v10.07h-1.25Z"/>
        <path class="cls-1" d="M22.05,95.45c-.71,0-1.35-.12-1.93-.37-.58-.25-1.05-.59-1.42-1.04-.37-.44-.6-.96-.7-1.54l1.31-.08c.11.54.39.99.84,1.32.44.33,1.08.5,1.9.5.97,0,1.73-.23,2.25-.68s.79-1.12.79-2v-1.73c-.25.61-.66,1.1-1.22,1.46-.56.37-1.2.55-1.92.55-.85,0-1.6-.21-2.25-.62-.65-.41-1.16-.98-1.52-1.72-.36-.73-.54-1.59-.54-2.57s.18-1.83.54-2.56c.36-.73.86-1.3,1.5-1.71.64-.41,1.38-.62,2.21-.62.77,0,1.45.19,2.02.58.58.39.99.9,1.23,1.53v-1.88h1.2v9.27c0,.8-.17,1.49-.51,2.07-.34.58-.83,1.03-1.47,1.34-.64.31-1.41.47-2.31.47ZM22.01,90.66c.92,0,1.67-.33,2.23-1,.56-.67.85-1.57.85-2.71.01-.73-.11-1.38-.36-1.93-.25-.55-.61-.98-1.08-1.29-.47-.31-1.01-.46-1.63-.46-.95,0-1.7.33-2.24,1-.54.67-.82,1.56-.82,2.69s.28,2.04.83,2.71c.55.66,1.29,1,2.23,1Z"/>
        <path class="cls-1" d="M28.92,80.63v-1.69h1.33v1.69h-1.33ZM28.96,92.37v-10.07h1.25v10.07h-1.25Z"/>
        <path class="cls-1" d="M31.89,83.42v-1.12h5.43v1.12h-5.43ZM35.88,92.37c-.82,0-1.43-.19-1.82-.58-.39-.39-.59-.98-.59-1.78v-10.07h1.25v10.03c0,.47.1.8.31.99.21.19.53.29.96.29h1.33v1.12h-1.44Z"/>
        <path class="cls-1" d="M41.79,92.6c-1.01,0-1.82-.24-2.43-.73-.61-.49-.91-1.15-.91-1.99s.27-1.49.8-1.98,1.31-.82,2.34-1.01l3.72-.7c0-1-.22-1.74-.65-2.21-.43-.47-1.08-.71-1.96-.71-.77,0-1.39.18-1.84.55s-.76.89-.91,1.56l-1.33-.11c.19-.97.64-1.75,1.34-2.33s1.62-.86,2.75-.86c1.25,0,2.21.35,2.87,1.06.66.71.99,1.72.99,3.04v4.2c0,.34.05.57.16.69.11.12.28.18.52.18h.3v1.12c-.05.01-.12.02-.22.03-.1,0-.19,0-.29,0-.39,0-.72-.07-.98-.21s-.45-.37-.57-.68c-.12-.32-.18-.75-.18-1.31l.15.02c-.11.44-.34.85-.69,1.21s-.78.65-1.3.85-1.08.31-1.67.31ZM41.9,91.48c.7,0,1.3-.14,1.8-.42.51-.28.9-.66,1.18-1.13.28-.47.42-1.01.42-1.61v-1.01l-3.46.65c-.72.14-1.25.35-1.59.65-.34.29-.5.68-.5,1.16,0,.54.19.97.57,1.26.38.3.91.45,1.58.45Z"/>
        <path class="cls-1" d="M50.96,92.37c-.57,0-1.02-.14-1.35-.43s-.49-.73-.49-1.34v-11.72h1.25v11.63c0,.24.06.42.19.55.13.13.32.19.57.19h.8v1.12h-.97Z"/>
      </g>
      <path class="cls-1" d="M35.33,46.79v-3.32l-16.59-.04c-4.07,0-6.38-3.16-6.38-6.95v-15.23h-4.86C3.25,21.24-.04,25.56,0,29.87v14.97c0,2.92.94,5.77,3.02,7.82,1.87,1.85,4.42,2.95,7.1,2.94h17.11c3.97.07,8.11-4.39,8.11-8.81Z"/>
      <path class="cls-1" d="M21.25,8.81v3.32s22.97.06,22.97.06c.03,0,0,6.93,0,6.93v15.23h4.86c4.25,0,7.55-4.32,7.5-8.63v-14.97c0-2.92-.94-5.77-3.02-7.82C51.69,1.09,49.14-.01,46.46,0h-17.11c-3.97-.07-8.11,4.39-8.11,8.81Z"/>
      <path class="cls-1" d="M35.33,34.36v-13.09l-14.08-.02v6.63c0,3.79,2.52,6.48,5.92,6.48h8.16Z"/>
    </g>
  </g>
</svg>